<svg xmlns="http://www.w3.org/2000/svg" viewBox="0 0 114.889 162.393"><g data-name="Layer 2"><g data-name="ART"><path d="M19.505 122.321L1.304 154.685a2.129 2.129 0 00.49 2.754l3.14 3.396a2.176 2.176 0 003.251-.376l28.66-41.36z" fill="#3e4147"/><path d="M6.434 162.393a3.32 3.32 0 01-2.148-.796.988.988 0 01-.086-.083l-3.103-3.357a3.139 3.139 0 01-.637-4.008l18.173-32.318a1.002 1.002 0 01.689-.493l17.34-3.223a1 1 0 011.004 1.553L9.007 161.029a3.011 3.011 0 01-2.091 1.328 3.337 3.337 0 01-.482.036zm-.812-2.287a1.302 1.302 0 00.995.274 1.019 1.019 0 00.725-.457l27.297-39.398-14.492 2.694-17.972 31.957a1.151 1.151 0 00.267 1.5.929.929 0 01.087.084z" fill="#3e4147"/><path d="M13.633 97.199L53.73 37.845l36.672 23.309-36.418 62.889-35.38 21.341s2.643-15.932 2.236-15.292-8.367 5.158-8.367 5.158z" fill="#fdbe2a"/><path d="M18.603 146.884a1.5 1.5 0 01-1.48-1.745c.715-4.313 1.461-9.007 1.892-11.982-1.29.795-3.138 1.886-5.803 3.399a1.5 1.5 0 01-2.24-1.351l1.162-38.052a1.504 1.504 0 01.256-.794l40.096-59.354a1.499 1.499 0 012.048-.426l36.672 23.31a1.5 1.5 0 01.493 2.017L55.28 124.795a1.5 1.5 0 01-.523.532l-35.379 21.34a1.494 1.494 0 01-.775.217zm2.272-18.308a1.454 1.454 0 01.523.097c1.31.5 1.401.534-.783 13.746l32.262-19.461 35.504-61.31-34.226-21.755L15.12 97.68l-1.066 34.933c2.678-1.558 5.128-3.05 5.639-3.486a1.555 1.555 0 011.183-.55zm-1.3.709l-.001.002z" fill="#3e4147"/><path d="M54.654 33.233S66.861 13.274 71.125 4.97a6.404 6.404 0 019.166-2.449l30.159 19.42a6.411 6.411 0 011.49 9.45 250.213 250.213 0 00-17.858 27.155" fill="#f3783c"/><path d="M94.08 60.046a1.5 1.5 0 01-1.315-2.218 253.866 253.866 0 0118.013-27.386 4.93 4.93 0 001.05-3.884 4.85 4.85 0 00-2.19-3.357L79.478 3.782a4.904 4.904 0 00-7.018 1.873c-4.242 8.259-16.026 27.544-16.526 28.36a1.5 1.5 0 01-2.56-1.564c.123-.2 12.227-20.007 16.417-28.167a7.903 7.903 0 0111.312-3.023l30.159 19.419a7.91 7.91 0 011.84 11.659 249.671 249.671 0 00-17.703 26.925 1.5 1.5 0 01-1.318.782z" fill="#3e4147"/><rect x="50.638" y="34.751" width="49.347" height="20.458" rx="3.31" transform="rotate(-147.559 75.311 44.98)" fill="#d8e9f7"/><path d="M89.62 67.09a4.776 4.776 0 01-2.572-.752L50.99 43.418a4.816 4.816 0 01-1.48-6.639L56.933 25.1a4.808 4.808 0 016.64-1.478l36.06 22.919a4.817 4.817 0 011.479 6.64l-7.423 11.678a4.782 4.782 0 01-3.014 2.115 4.855 4.855 0 01-1.055.117zM60.996 25.87a1.835 1.835 0 00-.397.044 1.801 1.801 0 00-1.134.796l-7.422 11.679a1.812 1.812 0 00.556 2.499l36.06 22.919a1.81 1.81 0 002.498-.557L98.58 51.57a1.813 1.813 0 00-.558-2.499L61.964 26.153a1.8 1.8 0 00-.968-.283zM53.43 124.54a1 1 0 01-.898-.558l-8.002-16.255-13.233 7.54a1 1 0 01-1.49-.972l2.08-20.212-16.98 4.29a1 1 0 11-.49-1.939l18.367-4.64a1 1 0 011.24 1.072l-2.028 19.7 12.467-7.102a1 1 0 011.392.427l8.47 17.208a1 1 0 01-.895 1.442zM47.656 103.587a1.5 1.5 0 01-1.264-2.305l23.715-37.311a1.5 1.5 0 012.532 1.609L48.924 102.89a1.5 1.5 0 01-1.268.696z" fill="#3e4147"/><path d="M38.623 87.343a1.5 1.5 0 01-1.265-2.305l23.57-37.08a1.5 1.5 0 012.532 1.61l-23.57 37.08a1.5 1.5 0 01-1.267.695z" fill="#3e4147"/><path d="M44.959 106.333l-14.157 8.065 2.227-21.635-19.404 4.698-1.153 37.79s7.96-4.52 8.367-5.16-2.236 15.293-2.236 15.293l35.212-21.24z" fill="#f9e2d2"/><path d="M18.603 146.884a1.5 1.5 0 01-1.48-1.745c.715-4.313 1.461-9.007 1.891-11.982-1.288.795-3.137 1.886-5.802 3.399a1.5 1.5 0 01-2.24-1.351l1.154-37.79a1.501 1.501 0 011.146-1.412l19.404-4.697a1.5 1.5 0 011.845 1.61l-1.928 18.735 11.623-6.622a1.502 1.502 0 012.086.636l8.856 17.81a1.5 1.5 0 01-.568 1.953l-35.212 21.24a1.494 1.494 0 01-.775.216zm2.271-18.308a1.459 1.459 0 01.524.097c1.31.5 1.401.535-.783 13.745l31.241-18.845-7.534-15.151-12.777 7.279a1.5 1.5 0 01-2.235-1.457l2.01-19.523-16.23 3.928-1.037 33.963c2.678-1.557 5.127-3.049 5.638-3.486a1.559 1.559 0 011.183-.55zm-1.3.709l-.001.003z" fill="#3e4147"/></g></g></svg>
